<?xml version="1.0" encoding="UTF-8" standalone="no"?><!DOCTYPE svg PUBLIC "-//W3C//DTD SVG 1.1//EN" "http://www.w3.org/Graphics/SVG/1.1/DTD/svg11.dtd"><svg width="100%" height="100%" viewBox="0 0 1330 1459" version="1.1" xmlns="http://www.w3.org/2000/svg" xmlns:xlink="http://www.w3.org/1999/xlink" xml:space="preserve" xmlns:serif="http://www.serif.com/" style="fill-rule:evenodd;clip-rule:evenodd;stroke-linejoin:round;stroke-miterlimit:2;"><g id="Background"><path d="M672.921,1283.046c-483.978,-0.918 -712.194,-583.466 -374.974,-914.264c309.177,-303.29 858.062,-131.659 904.607,337.428c21.662,218.312 -127.547,564.084 -529.633,576.836Zm-45.756,-1033.359c147.121,-4.784 243.947,16.289 372.436,121.286c165.238,135.028 171.536,328.355 172.576,360.297c9.371,287.674 -205.81,480.899 -420.351,514.652c-389.93,61.346 -666.212,-318.244 -562.287,-639.686c108.866,-336.727 421.062,-354.449 437.626,-356.549Z" style="fill:#fff;fill-opacity:0.98;"/><path d="M672.918,1216.332c-50.773,-1.71 -133.332,-1.999 -242.641,-66.787c-277.396,-164.416 -311.52,-575.351 -31.029,-778.969c27.955,-20.294 44.677,4.525 22.862,22.089c-9.319,7.504 -126.6,81.044 -171.247,242.394c-47.42,171.371 30.981,324.552 42.834,324.365c2.432,-0.038 2.382,-0.635 134.489,-80.527c401.327,-242.704 401.326,-243.706 403.127,-247.615c21.182,-45.957 -12.335,-167.079 -12.287,-104.169c0.092,122.694 -187.83,200.871 -273.643,69.731c-30.887,-47.202 -17.941,-93.717 -28.922,-84.637c-0.255,0.211 -23.438,57.71 -8.132,114.375c5.453,20.188 16.951,23.158 1.209,36.899c-11.285,9.851 -58.647,-0.23 -117.492,67.275c-36.536,41.913 24.426,-27.715 110.293,-9.051c61.766,13.426 55.6,46.586 33.211,45.209c-4.885,-0.3 -89.216,-52.072 -157.298,23.656c-13.585,15.111 -29.949,67.08 -48.418,37.244c-4.025,-6.502 -2.287,-56.069 32.417,-107.772c37.155,-55.354 96.211,-74.017 106.227,-77.182c26.207,-8.282 -14.188,-28.449 12.399,-120.067c20.928,-72.12 103.876,-137.878 102.122,-91.467c-0.244,6.443 -76.711,99.652 15.672,178.137c88.065,74.817 237.667,-31.011 176.667,-148.143c-0.765,-1.468 -34.367,-42.798 -2.383,-45.578c0.294,-0.026 104.871,43.127 95.912,186.335c-0.882,14.105 19.4,-2.534 88.343,-44.23c70.565,-42.677 79.19,-44.631 72.268,-54.654c-97.943,-141.818 -308.844,-251.332 -540.654,-148.609c-28.863,12.79 -40.733,-16.654 -10.828,-29.631c454.26,-197.117 871.495,341.456 542.815,733.094c-14.184,16.901 -86.897,92.636 -105.399,76.34c-30.458,-26.826 71.591,-45.076 143.525,-187.212c105.807,-209.066 1.322,-406.801 -10.968,-406.595c-4.38,0.073 -437.567,264.33 -438.091,265.186c-7.359,12.021 28.519,64.489 -13.287,137.2c-28.151,48.962 -73.682,56.504 -52.763,58.819c4.383,0.485 43.389,-9.04 65.668,-22.179c48.095,-28.365 49.796,-69.473 81.467,-32.919c46.277,53.413 141.169,64.911 103.955,45.822c-112.855,-57.889 -85.873,-261.274 65.44,-274.372c5.656,-0.49 41.708,-3.61 70.099,11.019c15.57,8.023 18.208,14.86 21.641,6.262c4.125,-10.333 -76.928,-52.996 -41.007,-69.201c29.725,-13.409 110.814,101.049 102.435,156.49c-2.315,15.316 -21.948,17.699 -28.486,4.6c-87.813,-175.925 -300.819,-25.381 -205.98,110.817c32.269,46.341 85.488,46.294 93.86,46.286c22.425,-0.02 25.875,-7.671 36.013,6.165c24.044,32.815 -126.32,73.2 -213.963,1.627c-6.047,-4.938 -11.675,-10.375 -17.715,-15.321c-16.001,-13.103 -32.389,40.451 -125.201,54.179c-60.344,8.926 -145.552,-18.617 -115.674,-44.438c5.697,-4.923 116.295,14.132 145.783,-88.424c7.082,-24.631 5.603,-80.286 -12.253,-69.052c-85.918,54.051 -258.904,154.534 -259.737,160.378c-3.185,22.348 221.05,298.288 542.668,155.875c28.887,-12.791 40.689,16.67 10.824,29.611c-95.696,41.467 -159.187,40.446 -190.744,41.323Z" style="fill:#fff;fill-opacity:0.98;"/></g></svg>